<svg width="1440" height="444" viewBox="0 0 1440 444" fill="none" xmlns="http://www.w3.org/2000/svg">
<mask id="mask0_401_154" style="mask-type:alpha" maskUnits="userSpaceOnUse" x="0" y="0" width="1584" height="444">
<rect width="1584" height="444" fill="#D9D9D9"/>
</mask>
<g mask="url(#mask0_401_154)">
<path fill-rule="evenodd" clip-rule="evenodd" d="M0 78.5664L66 65.0944C132 51.6224 264 25.2908 396 16.7177C528 7.53225 660 16.7177 792 29.5773C924 43.0493 1056 60.8078 1188 65.0944C1320 69.3809 1452 60.8078 1518 56.5213L1584 51.6224V263.5H1518C1452 263.5 1320 263.5 1188 263.5C1056 263.5 924 263.5 792 263.5C660 263.5 528 263.5 396 263.5C264 263.5 132 263.5 66 263.5H0V78.5664Z" fill="#343D68"/>
<path fill-rule="evenodd" clip-rule="evenodd" d="M1584 443.434L1518 456.906C1452 470.378 1320 496.709 1188 505.282C1056 514.468 924 505.282 792 492.423C660 478.951 528 461.192 396 456.906C264 452.619 132 461.192 66 465.479L-3.43323e-05 470.378V258.5H66C132 258.5 264 258.5 396 258.5C528 258.5 660 258.5 792 258.5C924 258.5 1056 258.5 1188 258.5C1320 258.5 1452 258.5 1518 258.5H1584V443.434Z" fill="#343D68"/>
</g>
</svg>
